<svg width="40" height="44" viewBox="0 0 40 44" fill="none" xmlns="http://www.w3.org/2000/svg">
<path d="M33.9688 5.76559V3.44639C33.9688 2.83131 33.7244 2.24141 33.2895 1.80647C32.8546 1.37154 32.2647 1.1272 31.6496 1.1272H12.8965C12.2815 1.12733 11.6917 1.37176 11.2569 1.80672L2.17953 10.8841C1.74456 11.3189 1.50013 11.9087 1.5 12.5237V40.5536C1.5 41.1686 1.74434 41.7585 2.17928 42.1935C2.61421 42.6284 3.20411 42.8728 3.8192 42.8728H31.6496C32.2647 42.8728 32.8546 42.6284 33.2895 42.1935C33.7244 41.7585 33.9688 41.1686 33.9688 40.5536V28.9576M13.096 1.1272V10.404C13.096 11.0191 12.8516 11.609 12.4167 12.0439C11.9818 12.4788 11.3919 12.7232 10.7768 12.7232H1.5M27.8994 14.5136L34.2656 20.8821M37.0834 11.8233C37.9905 12.7321 38.5 13.9636 38.5 15.2476C38.5 16.5316 37.9905 17.7632 37.0834 18.6719L21.6608 34.0853L13.096 35.7992L14.8099 27.2367L30.2233 11.8233C30.673 11.3716 31.2075 11.0132 31.7961 10.7686C32.3848 10.524 33.0159 10.3981 33.6534 10.3981C34.2908 10.3981 34.9219 10.524 35.5106 10.7686C36.0992 11.0132 36.6337 11.3716 37.0834 11.8233Z" stroke="#002D56" stroke-width="2" stroke-linecap="round" stroke-linejoin="round"/>
</svg>
