<svg width="45" height="45" viewBox="0 0 45 45" fill="none" xmlns="http://www.w3.org/2000/svg">
<path fill-rule="evenodd" clip-rule="evenodd" d="M43.5905 22.2988V16.7521H40.4955L43.2965 14.0445C44.4341 12.9034 44.692 11.7475 44.5741 10.738C44.45 9.67553 43.8946 8.69273 43.28 8.0474L36.546 1.31373L36.5444 1.31212C35.3882 0.165964 34.2278 -0.0918322 33.2209 0.0260111C32.1633 0.149787 31.1863 0.703342 30.5394 1.31892L26.3751 5.50746H20.051C16.3021 5.50746 14.212 7.43242 13.1233 9.66803L13.0352 9.84892L3.25871 19.6249V28.6256L1.30928 30.5475C0.165518 31.7027 -0.0917316 32.8619 0.0260112 33.8678C0.149866 34.9259 0.704052 35.9035 1.32013 36.5503L8.05752 43.2873C9.05068 44.2804 10.0514 44.6001 10.9649 44.6001C12.187 44.6001 13.356 43.9829 14.0511 43.2885L14.0522 43.2873L20.4748 36.8413H29.0472C30.6906 36.8413 31.8511 36.3361 32.6712 35.6414C33.5078 34.9327 34.0558 33.9693 34.3519 32.9757L34.5441 32.3313L35.194 32.1587C37.233 31.6174 38.3746 30.0753 38.8499 28.4784L39.0434 27.8283L39.7002 27.6588C42.4665 26.9449 43.5905 24.2922 43.5905 22.2988ZM5.35679 20.4749V29.4733L2.80702 32.0427L2.80585 32.0439L2.79031 32.0593C2.66639 32.1816 2.27441 32.5686 2.1539 33.1561C2.00367 33.8884 2.31729 34.5426 2.80171 35.0604L2.81606 35.0758L9.55463 41.7914L9.57069 41.8076C9.69305 41.9316 10.0801 42.3235 10.6676 42.444C11.3998 42.5942 12.054 42.2807 12.5718 41.7963L12.5864 41.7826L19.626 34.7434H29.0472C30.2578 34.7434 31.2039 34.3144 31.8067 33.5293C32.3651 32.8019 32.4962 31.9384 32.4962 31.2945V30.2456H33.5453C34.7559 30.2456 35.7019 29.8166 36.3047 29.0314C36.8632 28.3041 36.9943 27.4406 36.9943 26.7967V25.7478H38.0434C39.2539 25.7478 40.2 25.3187 40.8028 24.5336C41.3613 23.8062 41.4924 22.9427 41.4924 22.2988V18.8499H23.3491V20.0499C23.3491 21.1788 22.9681 22.5922 22.0909 23.6979C21.2479 24.7605 19.9059 25.5967 17.802 25.5967C15.6981 25.5967 14.3561 24.7605 13.5131 23.6979C12.6358 22.5922 12.2549 21.1788 12.2549 20.0499V13.5772L5.35679 20.4749ZM20.051 7.6053H27.2232L32.0137 2.81507L32.0283 2.80141C32.5461 2.31701 33.2003 2.00345 33.9326 2.15365C34.5201 2.27416 34.9071 2.6661 35.0294 2.79002L35.046 2.80672L41.7841 9.52191L41.7984 9.53725C42.2828 10.055 42.5965 10.7092 42.4462 11.4415C42.3257 12.029 41.9337 12.4161 41.8098 12.5384L41.7945 12.5536L41.7931 12.555L37.6203 16.7521H21.251V20.0499C21.251 20.6938 21.1199 21.5573 20.5615 22.2847C19.9587 23.0698 19.0126 23.4988 17.802 23.4988C16.5914 23.4988 15.6453 23.0698 15.0425 22.2847C14.4841 21.5573 14.3529 20.6938 14.3529 20.0499V13.3031C14.3529 12.6851 14.4598 11.3046 15.2355 10.0391C16.0676 8.68172 17.5832 7.6053 20.051 7.6053Z" fill="#002D56"/>
</svg>
