<svg width="49" height="42" viewBox="0 0 49 42" fill="none" xmlns="http://www.w3.org/2000/svg">
<path fill-rule="evenodd" clip-rule="evenodd" d="M24.4852 0.7C24.6965 0.7 24.9018 0.77065 25.0687 0.900925L48.0143 18.811L46.8517 20.2835L43.3999 17.588V39.2554C43.3985 39.9377 43.1273 40.5914 42.6458 41.0736C42.1645 41.5557 41.5122 41.8269 40.8318 41.8283H8.16794C7.4876 41.8269 6.8353 41.5557 6.35391 41.0736C5.87264 40.5916 5.60141 39.9381 5.59988 39.2561V17.5733L2.14805 20.2688L0.985381 18.7962L23.9017 0.900893C24.0686 0.770639 24.2739 0.7 24.4852 0.7ZM20.5332 25.4709V39.9568H28.4665V25.4709H20.5332ZM30.3332 26.1709V39.9568H41.5332V16.1328L24.5002 2.82749L7.46654 16.1162V39.9568H18.6665V26.1709C18.6665 25.4886 18.9372 24.8344 19.4187 24.3523C19.9001 23.8701 20.5528 23.5995 21.2332 23.5995H27.7665C28.4469 23.5995 29.0997 23.8701 29.5811 24.3523C30.0625 24.8344 30.3332 25.4886 30.3332 26.1709Z" fill="#002D56"/>
</svg>
