<svg width="56" height="46" viewBox="0 0 56 46" fill="none" xmlns="http://www.w3.org/2000/svg">
<path d="M1.5 44.2H6.8M6.8 44.2H35.95M6.8 44.2V29.2752C6.8 27.884 6.8 27.187 6.96695 26.5378C7.11535 25.9627 7.35915 25.4168 7.68775 24.9213C8.05875 24.3648 8.57815 23.8957 9.6143 22.9682L15.712 17.488C17.7127 15.6913 18.7118 14.793 19.846 14.4511C20.8432 14.1507 21.9068 14.1507 22.904 14.4511C24.0382 14.793 25.04 15.6913 27.0434 17.4907L33.1384 22.9682C34.1719 23.8957 34.6886 24.3648 35.0623 24.9213C35.3909 25.4168 35.6347 25.9627 35.7831 26.5378C35.95 27.187 35.95 27.884 35.95 29.2752V44.2M35.95 44.2H49.2M49.2 44.2H54.5M49.2 44.2V10.2721C49.2 7.3094 49.2 5.8254 48.6223 4.69385C48.1133 3.69634 47.3016 2.88557 46.3036 2.37775C45.172 1.80005 43.688 1.80005 40.72 1.80005H23.23C20.262 1.80005 18.778 1.80005 17.6438 2.37775C16.6465 2.88572 15.8357 3.69653 15.3277 4.69385C14.75 5.82805 14.75 7.31205 14.75 10.28V17.7" stroke="#002D56" stroke-width="2" stroke-linecap="round" stroke-linejoin="round"/>
</svg>
