<svg width="48" height="42" viewBox="0 0 48 42" fill="none" xmlns="http://www.w3.org/2000/svg">
<path d="M17.8431 18.9961L18.4632 19.7807L17.8431 18.9961ZM18.2133 17.9955L17.228 18.1664L18.2133 17.9955ZM1.41437 31.9801L2.03442 32.7647L1.41437 31.9801ZM26.6236 30.0318L27.2835 30.7832L26.6236 30.0318ZM28.1767 29.3447L27.8789 30.2994L28.1767 29.3447ZM27.1764 29.5464L27.8363 30.2978L27.1764 29.5464ZM32.4994 31C41.0598 31 47.9994 24.0604 47.9994 15.5H45.9994C45.9994 22.9558 39.9552 29 32.4994 29V31ZM27.8789 30.2994C29.3395 30.7549 30.8917 31 32.4994 31V29C31.096 29 29.7444 28.7862 28.4744 28.3901L27.8789 30.2994ZM26.5166 28.795L25.9638 29.2804L27.2835 30.7832L27.8363 30.2978L26.5166 28.795ZM25.9638 29.2804H20.3814V31.2804H25.9638V29.2804ZM18.3814 31.2804V34.2804H20.3814V31.2804H18.3814ZM18.3814 34.2804H10.8916V36.2804H18.3814V34.2804ZM8.89157 36.2804V39.7804H10.8916V36.2804H8.89157ZM8.89157 39.7804H2.03442V41.7804H8.89157V39.7804ZM2.03442 39.7804V32.7647H0.0344238V39.7804H2.03442ZM2.03442 32.7647L18.4632 19.7807L17.2231 18.2115L0.794315 31.1956L2.03442 32.7647ZM16.9994 15.5C16.9994 16.4085 17.0776 17.2994 17.228 18.1664L19.1986 17.8245C19.0677 17.07 18.9994 16.2934 18.9994 15.5H16.9994ZM32.4994 0C23.939 0 16.9994 6.93959 16.9994 15.5H18.9994C18.9994 8.04416 25.0435 2 32.4994 2V0ZM47.9994 15.5C47.9994 6.93959 41.0598 0 32.4994 0V2C39.9552 2 45.9994 8.04416 45.9994 15.5H47.9994ZM34.4994 18C36.4324 18 37.9994 16.433 37.9994 14.5H35.9994C35.9994 15.3284 35.3278 16 34.4994 16V18ZM30.9994 14.5C30.9994 16.433 32.5664 18 34.4994 18V16C33.6709 16 32.9994 15.3284 32.9994 14.5H30.9994ZM34.4994 11C32.5664 11 30.9994 12.567 30.9994 14.5H32.9994C32.9994 13.6716 33.6709 13 34.4994 13V11ZM37.9994 14.5C37.9994 12.567 36.4324 11 34.4994 11V13C35.3278 13 35.9994 13.6716 35.9994 14.5H37.9994ZM18.4632 19.7807C19.0696 19.3014 19.3224 18.5385 19.1986 17.8245L17.228 18.1664C17.231 18.1837 17.2286 18.1975 17.2257 18.2057C17.2231 18.2129 17.2212 18.213 17.2231 18.2115L18.4632 19.7807ZM2.03442 32.7647L2.03442 32.7647L0.794315 31.1956C0.314379 31.5749 0.0344238 32.1529 0.0344238 32.7647H2.03442ZM2.03442 39.7804L2.03442 39.7804H0.0344238C0.0344238 40.885 0.929853 41.7804 2.03442 41.7804V39.7804ZM8.89157 39.7804L8.89157 39.7804V41.7804C9.99614 41.7804 10.8916 40.885 10.8916 39.7804H8.89157ZM10.8916 34.2804C9.78699 34.2804 8.89157 35.1758 8.89157 36.2804H10.8916L10.8916 36.2804V34.2804ZM18.3814 34.2804L18.3814 34.2804V36.2804C19.4859 36.2804 20.3814 35.385 20.3814 34.2804H18.3814ZM20.3814 29.2804C19.2768 29.2804 18.3814 30.1758 18.3814 31.2804H20.3814L20.3814 31.2804V29.2804ZM25.9638 29.2804L25.9638 29.2804V31.2804C26.4495 31.2804 26.9185 31.1037 27.2835 30.7832L25.9638 29.2804ZM28.4744 28.3901C27.8168 28.185 27.0682 28.3106 26.5166 28.795L27.8363 30.2978C27.8345 30.2993 27.835 30.2977 27.842 30.2963C27.8499 30.2947 27.863 30.2944 27.8789 30.2994L28.4744 28.3901Z" fill="#002D56"/>
</svg>
