<svg width="31" height="32" viewBox="0 0 31 32" fill="none" xmlns="http://www.w3.org/2000/svg">
<path d="M23.1012 11.8574C23.1012 11.3725 23.7222 11.1715 24.0063 11.5644L26.5295 15.0537C26.5911 15.139 26.6243 15.2415 26.6243 15.3467V29.8711C26.6243 30.1032 26.784 30.3048 27.0099 30.3578L29.7998 31.0133C30.3779 31.1491 30.2793 32 29.6854 32H23.6012C23.325 32 23.1012 31.7761 23.1012 31.5V21.1563V11.8574Z" fill="white"/>
<path d="M13.9317 5.45803C13.809 5.55271 13.7372 5.6989 13.7372 5.85384V6.88364C13.7372 7.03174 13.8028 7.17222 13.9164 7.26722L17.2457 10.051C17.3594 10.146 17.425 10.2865 17.425 10.4346V31.5C17.425 31.7761 17.6489 32 17.925 32H20.503C20.7792 32 21.003 31.7761 21.003 31.5V1.01754C21.003 0.602322 20.5262 0.368025 20.1975 0.621726L13.9317 5.45803Z" fill="white"/>
<path d="M4.26589 29.8725C4.26589 30.1039 4.10703 30.3051 3.88188 30.3588L1.13608 31.0136C0.559381 31.1512 0.659197 32 1.25206 32H12.6332C12.9094 32 13.1332 31.7761 13.1332 31.5V9.01914C13.1332 8.55598 12.5579 8.34176 12.255 8.69213L4.38765 17.7922C4.30911 17.883 4.26589 17.9991 4.26589 18.1192V29.8725Z" fill="white"/>
</svg>
