<svg width="12" height="17" viewBox="0 0 12 17" fill="none" xmlns="http://www.w3.org/2000/svg">
<path d="M9.1918 10.6439H2.63852M9.1918 10.6439L10.0113 15.5591H1.81906L2.63852 10.6439M9.1918 10.6439C9.62637 10.6439 10.0431 10.4713 10.3504 10.164C10.6577 9.85673 10.8303 9.43996 10.8303 9.0054V7.36728H1M2.63852 10.6439C2.42334 10.6439 2.21028 10.6015 2.01148 10.5192C1.81269 10.4369 1.63206 10.3162 1.47991 10.164C1.17263 9.85673 1 9.43996 1 9.0054V7.36728M1 7.36728H4.27664V1.63266C4.27664 1.41543 4.19035 1.2071 4.03675 1.0535C3.88314 0.899892 3.67481 0.813599 3.45758 0.813599H1.81906C1.60183 0.813599 1.3935 0.899892 1.2399 1.0535C1.08629 1.2071 1 1.41543 1 1.63266V7.36728Z" stroke="#002D56" stroke-width="1.2" stroke-linecap="round" stroke-linejoin="round"/>
</svg>
