<svg width="29" height="27" viewBox="0 0 29 27" fill="none" xmlns="http://www.w3.org/2000/svg">
<path d="M26.0265 22.0878C25.6634 21.8552 25.375 21.4889 25.375 21.0577V20.8C25.375 20.2477 24.9273 19.8 24.375 19.8H10.0107C9.25801 19.8 8.78064 18.9932 9.14302 18.3334V18.3334C9.31692 18.0168 9.6495 17.82 10.0107 17.82H26.3228C26.8193 17.82 27.2407 17.4557 27.3124 16.9644L28.833 6.54441C28.921 5.94103 28.4532 5.4 27.8435 5.4H7.49853C7.03435 5.4 6.6312 5.08059 6.52504 4.62873L5.61871 0.771275C5.51255 0.319408 5.10939 0 4.64522 0H0.899999C0.402943 0 0 0.402944 0 0.9V0.9C0 1.39706 0.402944 1.8 0.9 1.8H3.20804C3.6663 1.8 4.06591 2.11149 4.17778 2.55588L7.70283 16.5588C7.76148 16.7918 7.7343 17.0381 7.62627 17.2526L5.54432 21.3878C5.47408 21.5273 5.4375 21.6813 5.4375 21.8375V24.3C5.4375 25.74 6.70625 27 8.15625 27C9.60625 27 10.875 25.74 10.875 24.3C10.875 22.86 9.60625 21.6 8.15625 21.6H20.75C21.3023 21.6 21.75 22.0477 21.75 22.6V24.3C21.75 25.74 23.0187 27 24.4687 27C25.9187 27 27.1875 25.74 27.1875 24.3C27.1875 23.3127 26.7424 22.5464 26.0265 22.0878Z" fill="white"/>
</svg>
