<svg width="16" height="16" viewBox="0 0 16 16" fill="none" xmlns="http://www.w3.org/2000/svg">
<path fill-rule="evenodd" clip-rule="evenodd" d="M15.6378 7.99957V6.0097H14.5275L15.5324 5.03839C15.9405 4.62903 16.033 4.21433 15.9907 3.85221C15.9462 3.47104 15.7469 3.11846 15.5264 2.88695L13.1101 0.470716C12.6953 0.0595386 12.279 -0.0329442 11.9178 0.00933133C11.5384 0.0537351 11.1879 0.25232 10.9558 0.473155L9.46192 1.97577H7.19318C5.84829 1.97577 5.09848 2.66634 4.70791 3.46835L4.67631 3.53324L1.16904 7.04032V10.2693L0.469697 10.9587C0.0593787 11.3731 -0.0329081 11.789 0.00933135 12.1499C0.0537635 12.5295 0.252574 12.8802 0.473589 13.1122L2.89058 15.5291C3.24688 15.8853 3.60589 16 3.93359 16C4.372 16 4.79181 15.7782 5.04115 15.5291L7.34521 13.2166H10.4205C11.0101 13.2166 11.4264 13.0354 11.7206 12.7861C12.0207 12.5319 12.2173 12.1863 12.3236 11.8298L12.3925 11.5986L12.6256 11.5367C13.3571 11.3426 13.7666 10.7893 13.9372 10.2164L14.0066 9.98322L14.2422 9.92241C15.2346 9.66633 15.6378 8.71468 15.6378 7.99957ZM1.92172 7.34524V10.5734L1.00658 11.4955L1.00101 11.5011C0.956552 11.545 0.815932 11.6838 0.772697 11.8946C0.718804 12.1573 0.831315 12.392 1.0051 12.5777L1.01024 12.5832L3.42766 14.9924L3.43343 14.9982C3.47732 15.0427 3.61616 15.1833 3.82692 15.2265C4.08962 15.2804 4.3243 15.1679 4.51007 14.9942L4.51531 14.9893L7.04069 12.464H10.4205C10.8548 12.464 11.1942 12.3101 11.4104 12.0284C11.6108 11.7675 11.6578 11.4577 11.6578 11.2267V10.8504H12.0342C12.4685 10.8504 12.8079 10.6965 13.0241 10.4148C13.2244 10.1539 13.2715 9.84413 13.2715 9.61314V9.23685H13.6478C14.0821 9.23685 14.4215 9.08294 14.6378 8.80127C14.8381 8.54034 14.8851 8.23056 14.8851 7.99957V6.76229H8.37635V7.19278C8.37635 7.59775 8.23968 8.10482 7.92499 8.50148C7.62256 8.88268 7.14113 9.18265 6.38636 9.18265C5.63158 9.18265 5.15015 8.88268 4.84772 8.50148C4.53303 8.10482 4.39636 7.59775 4.39636 7.19278V4.87073L1.92172 7.34524ZM7.19318 2.72836H9.76616L11.4847 1.00989L11.49 1.00499C11.6757 0.831215 11.9104 0.718726 12.1731 0.77261C12.3839 0.81584 12.5227 0.956449 12.5666 1.0009L12.5725 1.00689L14.9898 3.41593L14.9949 3.42143C15.1687 3.60719 15.2812 3.84187 15.2273 4.10459C15.1841 4.31535 15.0435 4.45419 14.999 4.49808L14.993 4.50402L13.4961 6.0097H7.62368V7.19278C7.62368 7.42377 7.57664 7.73356 7.3763 7.99449C7.16004 8.27615 6.82065 8.43006 6.38636 8.43006C5.95206 8.43006 5.61266 8.27615 5.39641 7.99449C5.19607 7.73356 5.14903 7.42377 5.14903 7.19278V4.77242C5.14903 4.55072 5.18736 4.05544 5.46565 3.60147C5.76417 3.11452 6.30787 2.72836 7.19318 2.72836Z" fill="#002D56"/>
</svg>
