<svg width="22" height="16" viewBox="0 0 22 16" fill="none" xmlns="http://www.w3.org/2000/svg">
<path d="M11 0.967743C4.66392 0.967743 1.58981 6.67695 1.0443 7.80713C1.01515 7.86725 1 7.9332 1 8.00002C1 8.06684 1.01515 8.13278 1.0443 8.1929C1.5888 9.32309 4.66291 15.0323 11 15.0323C17.3371 15.0323 20.4102 9.32309 20.9557 8.1929C20.9849 8.13278 21 8.06684 21 8.00002C21 7.9332 20.9849 7.86725 20.9557 7.80713C20.4112 6.67695 17.3371 0.967743 11 0.967743Z" stroke="white" stroke-width="1.5" stroke-linecap="round" stroke-linejoin="round"/>
<path d="M10.9999 11.0139C12.6644 11.0139 14.0138 9.66452 14.0138 8.00003C14.0138 6.33554 12.6644 4.9862 10.9999 4.9862C9.33542 4.9862 7.98608 6.33554 7.98608 8.00003C7.98608 9.66452 9.33542 11.0139 10.9999 11.0139Z" stroke="white" stroke-width="1.5" stroke-linecap="round" stroke-linejoin="round"/>
</svg>
