<svg width="13" height="13" viewBox="0 0 13 13" fill="none" xmlns="http://www.w3.org/2000/svg">
<path fill-rule="evenodd" clip-rule="evenodd" d="M12 0C12.2761 0 12.5 0.223858 12.5 0.5V2.80004C12.5 3.18664 12.1866 3.50004 11.8 3.50004H9.5V5.80004C9.5 6.18664 9.1866 6.50004 8.8 6.50004H6.5V8.80004C6.5 9.18665 6.1866 9.50004 5.8 9.50004H3.5V11.8C3.5 12.1866 3.1866 12.5 2.79999 12.5H0.5C0.223858 12.5 0 12.2762 0 12C0 11.7239 0.223858 11.5 0.5 11.5H2.5V9.20004C2.5 8.81344 2.8134 8.50004 3.2 8.50004H5.5V6.20004C5.5 5.81344 5.8134 5.50004 6.2 5.50004H8.5V3.20004C8.5 2.81344 8.8134 2.50004 9.2 2.50004H11.5V0.5C11.5 0.223858 11.7239 0 12 0Z" fill="#002D56"/>
</svg>
