<svg width="20" height="19" viewBox="0 0 20 19" fill="none" xmlns="http://www.w3.org/2000/svg">
<path d="M18.1 8.83818H17.218C16.7203 8.83818 16.318 9.16128 16.318 9.55908C16.318 9.95598 16.7203 10.2782 17.218 10.2782H18.1C18.5968 10.2782 19 9.95688 19 9.55908C19 9.16218 18.5959 8.83818 18.1 8.83818ZM10 4.60908C9.34939 4.60706 8.7048 4.73372 8.10333 4.98176C7.50186 5.22981 6.95537 5.59435 6.49532 6.0544C6.03526 6.51445 5.67073 7.06094 5.42268 7.66241C5.17464 8.26388 5.04798 8.90847 5.05 9.55908C5.05 12.305 7.2541 14.5091 10 14.5091C12.745 14.5091 14.95 12.305 14.95 9.55908C14.95 6.81318 12.7441 4.60908 10 4.60908ZM10 13.1591C8.0101 13.1591 6.4 11.5472 6.4 9.55908C6.4 7.56918 8.0101 5.95908 10 5.95908C10.9548 5.95908 11.8705 6.33837 12.5456 7.0135C13.2207 7.68863 13.6 8.6043 13.6 9.55908C13.6 10.5139 13.2207 11.4295 12.5456 12.1047C11.8705 12.7798 10.9548 13.1591 10 13.1591ZM3.7 9.55908C3.7 9.16218 3.2959 8.83818 2.8 8.83818H1.9C1.4023 8.83818 1 9.16128 1 9.55908C1 9.95598 1.4023 10.2782 1.9 10.2782H2.8C3.2959 10.2782 3.7 9.95598 3.7 9.55908ZM10 3.25908C10.3969 3.25908 10.7191 2.85678 10.7191 2.35908V1.45908C10.7191 0.961382 10.3969 0.559082 10 0.559082C9.6022 0.559082 9.2791 0.961382 9.2791 1.45908V2.35908C9.2791 2.85678 9.6022 3.25908 10 3.25908ZM10 15.8591C9.6022 15.8591 9.2791 16.2614 9.2791 16.7591V17.6591C9.2791 18.1568 9.6022 18.5591 10 18.5591C10.3969 18.5591 10.7191 18.1568 10.7191 17.6591V16.7591C10.7191 16.2614 10.3969 15.8591 10 15.8591ZM16.6285 3.94848C16.9804 3.59658 17.0371 3.08358 16.7563 2.80278C16.4755 2.52198 15.9616 2.57958 15.6115 2.93148L14.9815 3.56058C14.6296 3.91248 14.5729 4.42548 14.8537 4.70628C15.1345 4.98708 15.6484 4.92948 15.9994 4.57758L16.6285 3.94848ZM4.0006 14.5388L3.3706 15.1697C3.0187 15.5216 2.962 16.0328 3.2428 16.3136C3.5236 16.5944 4.0375 16.5386 4.3876 16.1867L5.0176 15.5576C5.3695 15.2057 5.4262 14.6927 5.1454 14.411C4.8646 14.1293 4.3507 14.1887 4.0006 14.5388ZM4.3885 2.93058C4.0375 2.57868 3.5236 2.52108 3.2428 2.80188C2.962 3.08268 3.0196 3.59658 3.3697 3.94848L3.9997 4.57758C4.3516 4.92948 4.8637 4.98708 5.1445 4.70628C5.4253 4.42548 5.3686 3.91158 5.0176 3.56058L4.3885 2.93058ZM14.9806 15.5585L15.6106 16.1876C15.9625 16.5395 16.4746 16.5953 16.7554 16.3163C17.0362 16.0355 16.9795 15.5216 16.6276 15.1706L15.9985 14.5415C15.6466 14.1896 15.1336 14.132 14.8519 14.4128C14.5702 14.6936 14.6287 15.2066 14.9806 15.5585Z" fill="#002D56"/>
<path fill-rule="evenodd" clip-rule="evenodd" d="M14.9815 3.56058L15.6115 2.93148C15.9616 2.57958 16.4755 2.52198 16.7563 2.80278C17.0371 3.08358 16.9804 3.59658 16.6285 3.94848L15.9994 4.57758C15.6484 4.92948 15.1345 4.98708 14.8537 4.70628C14.5729 4.42548 14.6296 3.91248 14.9815 3.56058ZM16.1411 4.71887C15.7432 5.11776 15.0993 5.23468 14.7123 4.84775C14.3256 4.461 14.4412 3.8181 14.8401 3.41921L15.4698 2.79047C15.4698 2.7904 15.4697 2.79055 15.4698 2.79047C15.8669 2.39147 16.511 2.2746 16.8978 2.66141C17.2845 3.04816 17.1689 3.69106 16.77 4.08995L16.1411 4.71887ZM3.85923 14.3974C4.25567 14.001 4.89984 13.8813 5.2871 14.2698C5.67336 14.6573 5.55815 15.3 5.15907 15.6991L4.52943 16.3278C4.52935 16.3279 4.52952 16.3277 4.52943 16.3278C4.13164 16.7274 3.48772 16.8413 3.10143 16.4551C2.71462 16.0682 2.83041 15.4271 3.22923 15.0283L3.85923 14.3974ZM3.3706 15.1697C3.0187 15.5216 2.962 16.0328 3.2428 16.3136C3.5236 16.5944 4.0375 16.5386 4.3876 16.1867L5.0176 15.5576C5.3695 15.2057 5.4262 14.6927 5.1454 14.411C4.8646 14.1293 4.3507 14.1887 4.0006 14.5388L3.3706 15.1697ZM3.3697 3.94848C3.0196 3.59658 2.962 3.08268 3.2428 2.80188C3.5236 2.52108 4.0375 2.57868 4.3885 2.93058L5.0176 3.56058C5.3686 3.91158 5.4253 4.42548 5.1445 4.70628C4.8637 4.98708 4.3516 4.92948 3.9997 4.57758L3.3697 3.94848ZM3.85833 4.71905C3.85829 4.71902 3.85836 4.71909 3.85833 4.71905C4.25687 5.11751 4.89897 5.23475 5.28597 4.84775C5.67255 4.46117 5.55726 3.81748 5.15917 3.41931M5.15917 3.41931L4.53015 2.78939C4.53018 2.78942 4.53012 2.78936 4.53015 2.78939C4.13227 2.39056 3.48833 2.27361 3.10143 2.66051C2.71459 3.04735 2.83144 3.69103 3.22796 4.08959L3.85833 4.71905M14.8392 15.7C14.441 15.3017 14.3223 14.6584 14.7108 14.2712C15.0985 13.8847 15.7412 14.0013 16.14 14.4001L16.7689 15.029C17.1681 15.4272 17.2835 16.0711 16.8969 16.4578C16.5104 16.8418 15.8685 16.7283 15.4693 16.3292M15.6106 16.1876C15.9625 16.5395 16.4746 16.5953 16.7554 16.3163C17.0362 16.0355 16.9795 15.5216 16.6276 15.1706L15.9985 14.5415C15.6466 14.1896 15.1336 14.132 14.8519 14.4128C14.5702 14.6936 14.6287 15.2066 14.9806 15.5585L15.6106 16.1876ZM15.4693 16.3292L14.8392 15.7ZM17.2181 8.63823H18.1C18.6628 8.63823 19.2001 9.01269 19.2001 9.55913C19.2001 10.1071 18.6629 10.4782 18.1 10.4782H17.2181C16.654 10.4782 16.118 10.1059 16.118 9.55913C16.118 9.01187 16.6534 8.63823 17.2181 8.63823ZM8.02713 4.79692C8.65288 4.53886 9.32349 4.40707 10.0004 4.40913C12.8547 4.4093 15.15 6.70283 15.15 9.55913C15.15 12.4155 12.8555 14.7091 10 14.7091C7.1438 14.7091 4.85022 12.4157 4.85005 9.55944C4.84799 8.88257 4.97978 8.21197 5.23783 7.58621C5.49593 6.96036 5.87525 6.39172 6.35394 5.91303C6.83264 5.43433 7.40128 5.05502 8.02713 4.79692ZM5.05 9.55908C5.04798 8.90847 5.17464 8.26388 5.42268 7.66241C5.67073 7.06094 6.03526 6.51445 6.49532 6.0544C6.95537 5.59435 7.50186 5.22981 8.10333 4.98176C8.7048 4.73372 9.34939 4.60706 10 4.60908C12.7441 4.60908 14.95 6.81318 14.95 9.55908C14.95 12.305 12.745 14.5091 10 14.5091C7.2541 14.5091 5.05 12.305 5.05 9.55908ZM6.60005 9.55913C6.60005 11.4368 8.12067 12.9591 10 12.9591C10.9018 12.9591 11.7666 12.6009 12.4042 11.9633C13.0418 11.3257 13.4 10.4609 13.4 9.55913C13.4 8.65739 13.0418 7.79259 12.4042 7.15497C11.7666 6.51734 10.9018 6.15913 10 6.15913C8.12061 6.15913 6.60005 7.67969 6.60005 9.55913ZM2.80005 8.63823C3.36277 8.63823 3.90005 9.01269 3.90005 9.55913C3.90005 10.1061 3.36207 10.4782 2.80005 10.4782H1.90005C1.33595 10.4782 0.800049 10.1059 0.800049 9.55913C0.800049 9.01187 1.33542 8.63823 1.90005 8.63823H2.80005ZM10.9191 2.35913C10.9191 2.92323 10.5468 3.45913 10 3.45913C9.45279 3.45913 9.07915 2.92376 9.07915 2.35913V1.45913C9.07915 0.894506 9.45279 0.359131 10 0.359131C10.5468 0.359131 10.9191 0.895032 10.9191 1.45913V2.35913ZM9.07915 16.7591C9.07915 16.1945 9.45279 15.6591 10 15.6591C10.5468 15.6591 10.9191 16.195 10.9191 16.7591V17.6591C10.9191 18.2232 10.5468 18.7591 10 18.7591C9.45279 18.7591 9.07915 18.2238 9.07915 17.6591V16.7591ZM17.218 8.83818H18.1C18.5959 8.83818 19 9.16218 19 9.55908C19 9.95688 18.5968 10.2782 18.1 10.2782H17.218C16.7203 10.2782 16.318 9.95598 16.318 9.55908C16.318 9.16128 16.7203 8.83818 17.218 8.83818ZM6.4 9.55908C6.4 11.5472 8.0101 13.1591 10 13.1591C10.9548 13.1591 11.8705 12.7798 12.5456 12.1047C13.2207 11.4295 13.6 10.5139 13.6 9.55908C13.6 8.6043 13.2207 7.68863 12.5456 7.0135C11.8705 6.33837 10.9548 5.95908 10 5.95908C8.0101 5.95908 6.4 7.56918 6.4 9.55908ZM2.8 8.83818C3.2959 8.83818 3.7 9.16218 3.7 9.55908C3.7 9.95598 3.2959 10.2782 2.8 10.2782H1.9C1.4023 10.2782 1 9.95598 1 9.55908C1 9.16128 1.4023 8.83818 1.9 8.83818H2.8ZM10.7191 2.35908C10.7191 2.85678 10.3969 3.25908 10 3.25908C9.6022 3.25908 9.2791 2.85678 9.2791 2.35908V1.45908C9.2791 0.961382 9.6022 0.559082 10 0.559082C10.3969 0.559082 10.7191 0.961382 10.7191 1.45908V2.35908ZM9.2791 16.7591C9.2791 16.2614 9.6022 15.8591 10 15.8591C10.3969 15.8591 10.7191 16.2614 10.7191 16.7591V17.6591C10.7191 18.1568 10.3969 18.5591 10 18.5591C9.6022 18.5591 9.2791 18.1568 9.2791 17.6591V16.7591Z" fill="#002D56"/>
</svg>
